<mxfile host="app.diagrams.net" modified="2023-07-05T12:01:11.182Z" agent="Mozilla/5.0 (Windows NT 10.0; Win64; x64) AppleWebKit/537.36 (KHTML, like Gecko) Chrome/114.0.0.0 Safari/537.36" etag="-aI5RRX6ZB0868ETLaRP" version="21.5.2" type="github">
  <diagram name="第 1 页" id="nn_7PzYIXxSiBrkKg_zi">
    <mxGraphModel dx="1050" dy="581" grid="1" gridSize="10" guides="1" tooltips="1" connect="1" arrows="1" fold="1" page="1" pageScale="1" pageWidth="827" pageHeight="1169" math="0" shadow="0">
      <root>
        <mxCell id="0" />
        <mxCell id="1" parent="0" />
        <mxCell id="SsdBYtxJOpID0I5rCiJZ-74" value="管理域" style="rounded=0;whiteSpace=wrap;html=1;strokeColor=none;verticalAlign=top;fillColor=#dae8fc;" parent="1" vertex="1">
          <mxGeometry x="510" y="20" width="270" height="480" as="geometry" />
        </mxCell>
        <mxCell id="SsdBYtxJOpID0I5rCiJZ-73" value="业务域" style="rounded=0;whiteSpace=wrap;html=1;strokeColor=none;verticalAlign=top;fillColor=#d5e8d4;" parent="1" vertex="1">
          <mxGeometry y="20" width="490" height="480" as="geometry" />
        </mxCell>
        <mxCell id="SsdBYtxJOpID0I5rCiJZ-25" value="" style="group" parent="1" vertex="1" connectable="0">
          <mxGeometry x="30" y="60" width="480" height="490" as="geometry" />
        </mxCell>
        <mxCell id="SsdBYtxJOpID0I5rCiJZ-23" value="Load&lt;br&gt;Balancing" style="rounded=0;whiteSpace=wrap;html=1;" parent="SsdBYtxJOpID0I5rCiJZ-25" vertex="1">
          <mxGeometry width="440" height="40" as="geometry" />
        </mxCell>
        <mxCell id="SsdBYtxJOpID0I5rCiJZ-24" value="" style="sketch=0;html=1;dashed=0;whitespace=wrap;fillColor=#2875E2;strokeColor=#ffffff;points=[[0.005,0.63,0],[0.1,0.2,0],[0.9,0.2,0],[0.5,0,0],[0.995,0.63,0],[0.72,0.99,0],[0.5,1,0],[0.28,0.99,0]];verticalLabelPosition=bottom;align=center;verticalAlign=top;shape=mxgraph.kubernetes.icon;prIcon=svc" parent="SsdBYtxJOpID0I5rCiJZ-25" vertex="1">
          <mxGeometry y="5" width="125.71428571428572" height="30" as="geometry" />
        </mxCell>
        <mxCell id="SsdBYtxJOpID0I5rCiJZ-54" value="DataBase" style="shape=cylinder3;whiteSpace=wrap;html=1;boundedLbl=1;backgroundOutline=1;size=15;" parent="SsdBYtxJOpID0I5rCiJZ-25" vertex="1">
          <mxGeometry x="190" y="310" width="60" height="80" as="geometry" />
        </mxCell>
        <mxCell id="SsdBYtxJOpID0I5rCiJZ-53" value="DataBase" style="shape=cylinder3;whiteSpace=wrap;html=1;boundedLbl=1;backgroundOutline=1;size=15;" parent="SsdBYtxJOpID0I5rCiJZ-25" vertex="1">
          <mxGeometry x="40" y="310" width="60" height="80" as="geometry" />
        </mxCell>
        <mxCell id="SsdBYtxJOpID0I5rCiJZ-30" value="" style="group" parent="1" vertex="1" connectable="0">
          <mxGeometry x="30" y="140" width="140" height="150" as="geometry" />
        </mxCell>
        <mxCell id="SsdBYtxJOpID0I5rCiJZ-26" value="" style="rounded=0;whiteSpace=wrap;html=1;" parent="SsdBYtxJOpID0I5rCiJZ-30" vertex="1">
          <mxGeometry width="140" height="150" as="geometry" />
        </mxCell>
        <mxCell id="SsdBYtxJOpID0I5rCiJZ-27" value="&lt;b&gt;App&lt;/b&gt;&lt;br&gt;&lt;font color=&quot;#4d4d4d&quot;&gt;db: 127.0.0.1:3306&lt;/font&gt;" style="rounded=0;whiteSpace=wrap;html=1;align=left;" parent="SsdBYtxJOpID0I5rCiJZ-30" vertex="1">
          <mxGeometry x="10" y="50" width="120" height="40" as="geometry" />
        </mxCell>
        <mxCell id="SsdBYtxJOpID0I5rCiJZ-28" value="&lt;b&gt;ShardingSphere&lt;/b&gt;&lt;br&gt;&lt;font color=&quot;#4d4d4d&quot;&gt;mode: Cluster&lt;/font&gt;" style="rounded=0;whiteSpace=wrap;html=1;align=left;" parent="SsdBYtxJOpID0I5rCiJZ-30" vertex="1">
          <mxGeometry x="10" y="100" width="120" height="40" as="geometry" />
        </mxCell>
        <mxCell id="SsdBYtxJOpID0I5rCiJZ-29" value="" style="sketch=0;html=1;dashed=0;whitespace=wrap;fillColor=#2875E2;strokeColor=#ffffff;points=[[0.005,0.63,0],[0.1,0.2,0],[0.9,0.2,0],[0.5,0,0],[0.995,0.63,0],[0.72,0.99,0],[0.5,1,0],[0.28,0.99,0]];verticalLabelPosition=bottom;align=center;verticalAlign=top;shape=mxgraph.kubernetes.icon;prIcon=pod" parent="SsdBYtxJOpID0I5rCiJZ-30" vertex="1">
          <mxGeometry x="50" y="10" width="40" height="30" as="geometry" />
        </mxCell>
        <mxCell id="SsdBYtxJOpID0I5rCiJZ-31" value="" style="group" parent="1" vertex="1" connectable="0">
          <mxGeometry x="180" y="140" width="140" height="150" as="geometry" />
        </mxCell>
        <mxCell id="SsdBYtxJOpID0I5rCiJZ-32" value="" style="rounded=0;whiteSpace=wrap;html=1;" parent="SsdBYtxJOpID0I5rCiJZ-31" vertex="1">
          <mxGeometry width="140" height="150" as="geometry" />
        </mxCell>
        <mxCell id="SsdBYtxJOpID0I5rCiJZ-33" value="&lt;b&gt;App&lt;/b&gt;&lt;br&gt;&lt;font color=&quot;#4d4d4d&quot;&gt;db: 127.0.0.1:3306&lt;/font&gt;" style="rounded=0;whiteSpace=wrap;html=1;align=left;" parent="SsdBYtxJOpID0I5rCiJZ-31" vertex="1">
          <mxGeometry x="10" y="50" width="120" height="40" as="geometry" />
        </mxCell>
        <mxCell id="SsdBYtxJOpID0I5rCiJZ-34" value="&lt;b&gt;ShardingSphere&lt;/b&gt;&lt;br&gt;&lt;font color=&quot;#4d4d4d&quot;&gt;mode: Cluster&lt;/font&gt;" style="rounded=0;whiteSpace=wrap;html=1;align=left;" parent="SsdBYtxJOpID0I5rCiJZ-31" vertex="1">
          <mxGeometry x="10" y="100" width="120" height="40" as="geometry" />
        </mxCell>
        <mxCell id="SsdBYtxJOpID0I5rCiJZ-35" value="" style="sketch=0;html=1;dashed=0;whitespace=wrap;fillColor=#2875E2;strokeColor=#ffffff;points=[[0.005,0.63,0],[0.1,0.2,0],[0.9,0.2,0],[0.5,0,0],[0.995,0.63,0],[0.72,0.99,0],[0.5,1,0],[0.28,0.99,0]];verticalLabelPosition=bottom;align=center;verticalAlign=top;shape=mxgraph.kubernetes.icon;prIcon=pod" parent="SsdBYtxJOpID0I5rCiJZ-31" vertex="1">
          <mxGeometry x="50" y="10" width="40" height="30" as="geometry" />
        </mxCell>
        <mxCell id="SsdBYtxJOpID0I5rCiJZ-36" value="" style="group" parent="1" vertex="1" connectable="0">
          <mxGeometry x="330" y="140" width="140" height="150" as="geometry" />
        </mxCell>
        <mxCell id="SsdBYtxJOpID0I5rCiJZ-37" value="" style="rounded=0;whiteSpace=wrap;html=1;" parent="SsdBYtxJOpID0I5rCiJZ-36" vertex="1">
          <mxGeometry width="140" height="150" as="geometry" />
        </mxCell>
        <mxCell id="SsdBYtxJOpID0I5rCiJZ-38" value="&lt;b&gt;App&lt;/b&gt;&lt;br&gt;&lt;font color=&quot;#4d4d4d&quot;&gt;db: 127.0.0.1:3306&lt;/font&gt;" style="rounded=0;whiteSpace=wrap;html=1;align=left;" parent="SsdBYtxJOpID0I5rCiJZ-36" vertex="1">
          <mxGeometry x="10" y="50" width="120" height="40" as="geometry" />
        </mxCell>
        <mxCell id="SsdBYtxJOpID0I5rCiJZ-39" value="&lt;b&gt;ShardingSphere&lt;/b&gt;&lt;br&gt;&lt;font color=&quot;#4d4d4d&quot;&gt;mode: Cluster&lt;/font&gt;" style="rounded=0;whiteSpace=wrap;html=1;align=left;" parent="SsdBYtxJOpID0I5rCiJZ-36" vertex="1">
          <mxGeometry x="10" y="100" width="120" height="40" as="geometry" />
        </mxCell>
        <mxCell id="SsdBYtxJOpID0I5rCiJZ-40" value="" style="sketch=0;html=1;dashed=0;whitespace=wrap;fillColor=#2875E2;strokeColor=#ffffff;points=[[0.005,0.63,0],[0.1,0.2,0],[0.9,0.2,0],[0.5,0,0],[0.995,0.63,0],[0.72,0.99,0],[0.5,1,0],[0.28,0.99,0]];verticalLabelPosition=bottom;align=center;verticalAlign=top;shape=mxgraph.kubernetes.icon;prIcon=pod" parent="SsdBYtxJOpID0I5rCiJZ-36" vertex="1">
          <mxGeometry x="50" y="10" width="40" height="30" as="geometry" />
        </mxCell>
        <mxCell id="SsdBYtxJOpID0I5rCiJZ-45" value="" style="group" parent="1" vertex="1" connectable="0">
          <mxGeometry x="580" y="140" width="140" height="150" as="geometry" />
        </mxCell>
        <mxCell id="SsdBYtxJOpID0I5rCiJZ-46" value="" style="rounded=0;whiteSpace=wrap;html=1;" parent="SsdBYtxJOpID0I5rCiJZ-45" vertex="1">
          <mxGeometry width="140" height="150" as="geometry" />
        </mxCell>
        <mxCell id="SsdBYtxJOpID0I5rCiJZ-47" value="&lt;b&gt;Admin&lt;/b&gt;&lt;br&gt;&lt;font color=&quot;#4d4d4d&quot;&gt;db: 127.0.0.1:3306&lt;/font&gt;" style="rounded=0;whiteSpace=wrap;html=1;align=left;" parent="SsdBYtxJOpID0I5rCiJZ-45" vertex="1">
          <mxGeometry x="10" y="50" width="120" height="40" as="geometry" />
        </mxCell>
        <mxCell id="SsdBYtxJOpID0I5rCiJZ-48" value="&lt;b&gt;ShardingSphere&lt;/b&gt;&lt;br&gt;&lt;font color=&quot;#4d4d4d&quot;&gt;mode: Cluster&lt;/font&gt;" style="rounded=0;whiteSpace=wrap;html=1;align=left;" parent="SsdBYtxJOpID0I5rCiJZ-45" vertex="1">
          <mxGeometry x="10" y="100" width="120" height="40" as="geometry" />
        </mxCell>
        <mxCell id="SsdBYtxJOpID0I5rCiJZ-49" value="" style="sketch=0;html=1;dashed=0;whitespace=wrap;fillColor=#2875E2;strokeColor=#ffffff;points=[[0.005,0.63,0],[0.1,0.2,0],[0.9,0.2,0],[0.5,0,0],[0.995,0.63,0],[0.72,0.99,0],[0.5,1,0],[0.28,0.99,0]];verticalLabelPosition=bottom;align=center;verticalAlign=top;shape=mxgraph.kubernetes.icon;prIcon=pod" parent="SsdBYtxJOpID0I5rCiJZ-45" vertex="1">
          <mxGeometry x="50" y="10" width="40" height="30" as="geometry" />
        </mxCell>
        <mxCell id="SsdBYtxJOpID0I5rCiJZ-50" value="" style="group" parent="1" vertex="1" connectable="0">
          <mxGeometry x="590" y="380" width="140" height="80" as="geometry" />
        </mxCell>
        <mxCell id="SsdBYtxJOpID0I5rCiJZ-41" value="" style="rounded=0;whiteSpace=wrap;html=1;" parent="SsdBYtxJOpID0I5rCiJZ-50" vertex="1">
          <mxGeometry width="120" height="60" as="geometry" />
        </mxCell>
        <mxCell id="SsdBYtxJOpID0I5rCiJZ-42" value="" style="rounded=0;whiteSpace=wrap;html=1;" parent="SsdBYtxJOpID0I5rCiJZ-50" vertex="1">
          <mxGeometry x="10" y="10" width="120" height="60" as="geometry" />
        </mxCell>
        <mxCell id="SsdBYtxJOpID0I5rCiJZ-43" value="&lt;b&gt;Zookeeper&lt;/b&gt;&lt;br&gt;meta data" style="rounded=0;whiteSpace=wrap;html=1;align=right;" parent="SsdBYtxJOpID0I5rCiJZ-50" vertex="1">
          <mxGeometry x="20" y="20" width="120" height="60" as="geometry" />
        </mxCell>
        <mxCell id="SsdBYtxJOpID0I5rCiJZ-44" value="" style="sketch=0;html=1;dashed=0;whitespace=wrap;fillColor=#2875E2;strokeColor=#ffffff;points=[[0.005,0.63,0],[0.1,0.2,0],[0.9,0.2,0],[0.5,0,0],[0.995,0.63,0],[0.72,0.99,0],[0.5,1,0],[0.28,0.99,0]];verticalLabelPosition=bottom;align=center;verticalAlign=top;shape=mxgraph.kubernetes.icon;prIcon=pod" parent="SsdBYtxJOpID0I5rCiJZ-50" vertex="1">
          <mxGeometry x="20" y="35" width="40" height="30" as="geometry" />
        </mxCell>
        <mxCell id="SsdBYtxJOpID0I5rCiJZ-55" value="DataBase" style="shape=cylinder3;whiteSpace=wrap;html=1;boundedLbl=1;backgroundOutline=1;size=15;" parent="1" vertex="1">
          <mxGeometry x="370" y="370" width="60" height="80" as="geometry" />
        </mxCell>
        <mxCell id="SsdBYtxJOpID0I5rCiJZ-67" style="edgeStyle=orthogonalEdgeStyle;rounded=0;orthogonalLoop=1;jettySize=auto;html=1;entryX=0.5;entryY=0;entryDx=0;entryDy=0;" parent="1" source="SsdBYtxJOpID0I5rCiJZ-48" target="SsdBYtxJOpID0I5rCiJZ-41" edge="1">
          <mxGeometry relative="1" as="geometry" />
        </mxCell>
        <mxCell id="SsdBYtxJOpID0I5rCiJZ-69" style="edgeStyle=orthogonalEdgeStyle;rounded=0;orthogonalLoop=1;jettySize=auto;html=1;entryX=0;entryY=0.5;entryDx=0;entryDy=0;" parent="1" source="SsdBYtxJOpID0I5rCiJZ-39" target="SsdBYtxJOpID0I5rCiJZ-41" edge="1">
          <mxGeometry relative="1" as="geometry">
            <Array as="points">
              <mxPoint x="510" y="260" />
              <mxPoint x="510" y="410" />
            </Array>
          </mxGeometry>
        </mxCell>
        <mxCell id="SsdBYtxJOpID0I5rCiJZ-70" style="edgeStyle=orthogonalEdgeStyle;rounded=0;orthogonalLoop=1;jettySize=auto;html=1;entryX=0.5;entryY=0;entryDx=0;entryDy=0;" parent="1" source="SsdBYtxJOpID0I5rCiJZ-23" target="SsdBYtxJOpID0I5rCiJZ-32" edge="1">
          <mxGeometry relative="1" as="geometry" />
        </mxCell>
        <mxCell id="SsdBYtxJOpID0I5rCiJZ-71" style="edgeStyle=orthogonalEdgeStyle;rounded=0;orthogonalLoop=1;jettySize=auto;html=1;entryX=0.5;entryY=0;entryDx=0;entryDy=0;" parent="1" source="SsdBYtxJOpID0I5rCiJZ-23" target="SsdBYtxJOpID0I5rCiJZ-26" edge="1">
          <mxGeometry relative="1" as="geometry" />
        </mxCell>
        <mxCell id="SsdBYtxJOpID0I5rCiJZ-72" style="edgeStyle=orthogonalEdgeStyle;rounded=0;orthogonalLoop=1;jettySize=auto;html=1;" parent="1" source="SsdBYtxJOpID0I5rCiJZ-23" target="SsdBYtxJOpID0I5rCiJZ-37" edge="1">
          <mxGeometry relative="1" as="geometry" />
        </mxCell>
        <mxCell id="eHa1FOKypq9-jHvBTGTT-2" style="edgeStyle=orthogonalEdgeStyle;rounded=0;orthogonalLoop=1;jettySize=auto;html=1;" edge="1" parent="1" source="SsdBYtxJOpID0I5rCiJZ-34" target="SsdBYtxJOpID0I5rCiJZ-54">
          <mxGeometry relative="1" as="geometry" />
        </mxCell>
        <mxCell id="eHa1FOKypq9-jHvBTGTT-3" style="edgeStyle=orthogonalEdgeStyle;rounded=0;orthogonalLoop=1;jettySize=auto;html=1;entryX=0.5;entryY=0;entryDx=0;entryDy=0;entryPerimeter=0;exitX=0.5;exitY=1;exitDx=0;exitDy=0;" edge="1" parent="1" source="SsdBYtxJOpID0I5rCiJZ-34" target="SsdBYtxJOpID0I5rCiJZ-53">
          <mxGeometry relative="1" as="geometry" />
        </mxCell>
        <mxCell id="eHa1FOKypq9-jHvBTGTT-4" style="edgeStyle=orthogonalEdgeStyle;rounded=0;orthogonalLoop=1;jettySize=auto;html=1;entryX=0.5;entryY=0;entryDx=0;entryDy=0;entryPerimeter=0;exitX=0.5;exitY=1;exitDx=0;exitDy=0;" edge="1" parent="1" source="SsdBYtxJOpID0I5rCiJZ-34" target="SsdBYtxJOpID0I5rCiJZ-55">
          <mxGeometry relative="1" as="geometry" />
        </mxCell>
        <mxCell id="eHa1FOKypq9-jHvBTGTT-5" style="edgeStyle=orthogonalEdgeStyle;rounded=0;orthogonalLoop=1;jettySize=auto;html=1;entryX=0.5;entryY=0;entryDx=0;entryDy=0;entryPerimeter=0;" edge="1" parent="1" source="SsdBYtxJOpID0I5rCiJZ-28" target="SsdBYtxJOpID0I5rCiJZ-53">
          <mxGeometry relative="1" as="geometry" />
        </mxCell>
        <mxCell id="eHa1FOKypq9-jHvBTGTT-6" style="edgeStyle=orthogonalEdgeStyle;rounded=0;orthogonalLoop=1;jettySize=auto;html=1;entryX=0.5;entryY=0;entryDx=0;entryDy=0;entryPerimeter=0;" edge="1" parent="1" source="SsdBYtxJOpID0I5rCiJZ-39" target="SsdBYtxJOpID0I5rCiJZ-55">
          <mxGeometry relative="1" as="geometry" />
        </mxCell>
        <mxCell id="eHa1FOKypq9-jHvBTGTT-7" style="edgeStyle=orthogonalEdgeStyle;rounded=0;orthogonalLoop=1;jettySize=auto;html=1;entryX=1;entryY=0.5;entryDx=0;entryDy=0;entryPerimeter=0;exitX=0;exitY=0.5;exitDx=0;exitDy=0;" edge="1" parent="1" source="SsdBYtxJOpID0I5rCiJZ-48" target="SsdBYtxJOpID0I5rCiJZ-55">
          <mxGeometry relative="1" as="geometry">
            <Array as="points">
              <mxPoint x="550" y="260" />
              <mxPoint x="550" y="340" />
              <mxPoint x="460" y="340" />
              <mxPoint x="460" y="410" />
            </Array>
          </mxGeometry>
        </mxCell>
      </root>
    </mxGraphModel>
  </diagram>
</mxfile>
